<mxfile host="app.diagrams.net" modified="2023-10-02T09:28:01.232Z" agent="Mozilla/5.0 (Windows NT 10.0; Win64; x64) AppleWebKit/537.36 (KHTML, like Gecko) Chrome/117.0.0.0 Safari/537.36" etag="fvZ1t1elCa-itHU1S8fj" version="22.0.0" type="device">
  <diagram id="prtHgNgQTEPvFCAcTncT" name="Page-1">
    <mxGraphModel dx="4530" dy="2240" grid="0" gridSize="10" guides="1" tooltips="1" connect="1" arrows="1" fold="1" page="1" pageScale="1" pageWidth="827" pageHeight="1169" math="0" shadow="0">
      <root>
        <mxCell id="0" />
        <mxCell id="1" parent="0" />
        <mxCell id="hMmeVdPa3TFVPshaFbfD-28" value="&lt;div style=&quot;&quot;&gt;&lt;font style=&quot;font-size: 12px;&quot;&gt;&lt;b style=&quot;&quot;&gt;response:&lt;/b&gt;&lt;br&gt;&lt;/font&gt;&lt;/div&gt;&lt;div style=&quot;&quot;&gt;&lt;font style=&quot;font-size: 12px;&quot;&gt;&quot;success&quot; / &quot;error&quot;&lt;/font&gt;&lt;/div&gt;" style="rounded=1;whiteSpace=wrap;html=1;fillColor=#dae8fc;strokeColor=#6c8ebf;spacingTop=0;verticalAlign=middle;spacingBottom=0;opacity=70;" parent="1" vertex="1">
          <mxGeometry x="339" y="405" width="170" height="40" as="geometry" />
        </mxCell>
        <mxCell id="hMmeVdPa3TFVPshaFbfD-19" value="&lt;div style=&quot;&quot;&gt;&lt;span style=&quot;background-color: initial;&quot;&gt;&lt;b style=&quot;&quot;&gt;&lt;font style=&quot;font-size: 12px;&quot;&gt;login:&lt;/font&gt;&lt;/b&gt;&lt;/span&gt;&lt;/div&gt;&lt;div style=&quot;&quot;&gt;&lt;font style=&quot;font-size: 12px;&quot;&gt;&lt;span style=&quot;background-color: initial;&quot;&gt;&amp;lt;identyfikator użytkownika&amp;gt;&lt;/span&gt;&lt;br&gt;&lt;/font&gt;&lt;/div&gt;&lt;div style=&quot;&quot;&gt;&lt;span style=&quot;background-color: initial;&quot;&gt;&lt;b&gt;&lt;font style=&quot;font-size: 12px;&quot;&gt;publicKey:&lt;/font&gt;&lt;/b&gt;&lt;/span&gt;&lt;/div&gt;&lt;div style=&quot;&quot;&gt;&lt;span style=&quot;background-color: initial;&quot;&gt;&lt;font style=&quot;font-size: 12px;&quot;&gt;&amp;lt;klucz publiczny RSA użytkownika&amp;gt;&lt;/font&gt;&lt;/span&gt;&lt;/div&gt;&lt;div style=&quot;&quot;&gt;&lt;b&gt;&lt;font style=&quot;font-size: 12px;&quot;&gt;signature:&lt;/font&gt;&lt;/b&gt;&lt;/div&gt;&lt;div style=&quot;&quot;&gt;&lt;font style=&quot;font-size: 12px;&quot;&gt;&amp;lt;podpis wiadomości (challenge)&amp;gt;&lt;/font&gt;&lt;/div&gt;" style="rounded=1;whiteSpace=wrap;html=1;fillColor=#dae8fc;strokeColor=#6c8ebf;spacingTop=0;verticalAlign=middle;spacingBottom=0;opacity=70;" parent="1" vertex="1">
          <mxGeometry x="343" y="224" width="170" height="120" as="geometry" />
        </mxCell>
        <mxCell id="hMmeVdPa3TFVPshaFbfD-13" value="&lt;div style=&quot;&quot;&gt;&lt;span style=&quot;background-color: initial;&quot;&gt;&lt;b style=&quot;&quot;&gt;&lt;font style=&quot;font-size: 12px;&quot;&gt;challenge:&lt;/font&gt;&lt;/b&gt;&lt;/span&gt;&lt;/div&gt;&lt;div style=&quot;&quot;&gt;&lt;span style=&quot;background-color: initial;&quot;&gt;&lt;font style=&quot;font-size: 12px;&quot;&gt;&amp;lt;losowo wygenerowana wiadomość&amp;gt;&lt;/font&gt;&lt;/span&gt;&lt;br&gt;&lt;/div&gt;" style="rounded=1;whiteSpace=wrap;html=1;fillColor=#dae8fc;strokeColor=#6c8ebf;spacingTop=0;verticalAlign=middle;spacingBottom=0;opacity=70;" parent="1" vertex="1">
          <mxGeometry x="270" y="153" width="170" height="40" as="geometry" />
        </mxCell>
        <mxCell id="hMmeVdPa3TFVPshaFbfD-2" value="Klient" style="shape=umlActor;verticalLabelPosition=bottom;verticalAlign=top;html=1;outlineConnect=0;" parent="1" vertex="1">
          <mxGeometry x="60" y="40" width="30" height="60" as="geometry" />
        </mxCell>
        <mxCell id="hMmeVdPa3TFVPshaFbfD-3" value="Serwer" style="shape=cube;whiteSpace=wrap;html=1;boundedLbl=1;backgroundOutline=1;darkOpacity=0.05;darkOpacity2=0.1;" parent="1" vertex="1">
          <mxGeometry x="520" y="130" width="120" height="80" as="geometry" />
        </mxCell>
        <mxCell id="hMmeVdPa3TFVPshaFbfD-4" value="" style="endArrow=classic;html=1;rounded=0;entryX=-0.023;entryY=0.452;entryDx=0;entryDy=0;entryPerimeter=0;" parent="1" source="hMmeVdPa3TFVPshaFbfD-2" target="hMmeVdPa3TFVPshaFbfD-3" edge="1">
          <mxGeometry width="50" height="50" relative="1" as="geometry">
            <mxPoint x="290" y="230" as="sourcePoint" />
            <mxPoint x="340" y="180" as="targetPoint" />
          </mxGeometry>
        </mxCell>
        <mxCell id="hMmeVdPa3TFVPshaFbfD-5" value="registerInit" style="edgeLabel;html=1;align=center;verticalAlign=middle;resizable=0;points=[];rotation=12;fontSize=12;labelBackgroundColor=none;" parent="hMmeVdPa3TFVPshaFbfD-4" vertex="1" connectable="0">
          <mxGeometry x="-0.2211" y="1" relative="1" as="geometry">
            <mxPoint x="76" y="9" as="offset" />
          </mxGeometry>
        </mxCell>
        <mxCell id="hMmeVdPa3TFVPshaFbfD-8" value="Klient" style="shape=umlActor;verticalLabelPosition=bottom;verticalAlign=top;html=1;outlineConnect=0;" parent="1" vertex="1">
          <mxGeometry x="60" y="260" width="30" height="60" as="geometry" />
        </mxCell>
        <mxCell id="hMmeVdPa3TFVPshaFbfD-11" value="" style="endArrow=classic;html=1;rounded=0;exitX=-0.026;exitY=0.558;exitDx=0;exitDy=0;exitPerimeter=0;" parent="1" source="hMmeVdPa3TFVPshaFbfD-3" target="hMmeVdPa3TFVPshaFbfD-8" edge="1">
          <mxGeometry width="50" height="50" relative="1" as="geometry">
            <mxPoint x="80" y="210" as="sourcePoint" />
            <mxPoint x="150" y="220" as="targetPoint" />
          </mxGeometry>
        </mxCell>
        <mxCell id="hMmeVdPa3TFVPshaFbfD-12" value="&lt;font style=&quot;font-size: 12px;&quot;&gt;registerInit (callback)&lt;/font&gt;" style="edgeLabel;html=1;align=center;verticalAlign=middle;resizable=0;points=[];rotation=-15;labelBackgroundColor=none;fontSize=12;" parent="hMmeVdPa3TFVPshaFbfD-11" vertex="1" connectable="0">
          <mxGeometry x="-0.2211" y="1" relative="1" as="geometry">
            <mxPoint x="-27" y="-3" as="offset" />
          </mxGeometry>
        </mxCell>
        <mxCell id="hMmeVdPa3TFVPshaFbfD-15" value="" style="endArrow=classic;html=1;rounded=0;entryX=-0.01;entryY=0.113;entryDx=0;entryDy=0;entryPerimeter=0;" parent="1" source="hMmeVdPa3TFVPshaFbfD-8" target="hMmeVdPa3TFVPshaFbfD-16" edge="1">
          <mxGeometry width="50" height="50" relative="1" as="geometry">
            <mxPoint x="240" y="360" as="sourcePoint" />
            <mxPoint x="520" y="390" as="targetPoint" />
          </mxGeometry>
        </mxCell>
        <mxCell id="hMmeVdPa3TFVPshaFbfD-26" value="registerFollowUp" style="edgeLabel;html=1;align=center;verticalAlign=middle;resizable=0;points=[];rotation=14;labelBackgroundColor=none;fontSize=12;spacing=2;" parent="hMmeVdPa3TFVPshaFbfD-15" vertex="1" connectable="0">
          <mxGeometry x="-0.4995" y="-1" relative="1" as="geometry">
            <mxPoint x="153" y="29" as="offset" />
          </mxGeometry>
        </mxCell>
        <mxCell id="hMmeVdPa3TFVPshaFbfD-16" value="Serwer" style="shape=cube;whiteSpace=wrap;html=1;boundedLbl=1;backgroundOutline=1;darkOpacity=0.05;darkOpacity2=0.1;" parent="1" vertex="1">
          <mxGeometry x="520" y="390" width="120" height="80" as="geometry" />
        </mxCell>
        <mxCell id="hMmeVdPa3TFVPshaFbfD-24" value="Klient" style="shape=umlActor;verticalLabelPosition=bottom;verticalAlign=top;html=1;outlineConnect=0;" parent="1" vertex="1">
          <mxGeometry x="60" y="555" width="30" height="60" as="geometry" />
        </mxCell>
        <mxCell id="hMmeVdPa3TFVPshaFbfD-25" value="" style="endArrow=classic;html=1;rounded=0;exitX=-0.023;exitY=0.667;exitDx=0;exitDy=0;exitPerimeter=0;" parent="1" source="hMmeVdPa3TFVPshaFbfD-16" target="hMmeVdPa3TFVPshaFbfD-24" edge="1">
          <mxGeometry width="50" height="50" relative="1" as="geometry">
            <mxPoint x="510" y="420" as="sourcePoint" />
            <mxPoint x="320" y="440" as="targetPoint" />
          </mxGeometry>
        </mxCell>
        <mxCell id="hMmeVdPa3TFVPshaFbfD-29" value="&lt;font style=&quot;font-size: 12px;&quot;&gt;registerFollowUp&lt;/font&gt;" style="edgeLabel;html=1;align=center;verticalAlign=middle;resizable=0;points=[];rotation=342;labelBackgroundColor=none;fontSize=12;" parent="hMmeVdPa3TFVPshaFbfD-25" vertex="1" connectable="0">
          <mxGeometry x="0.5535" relative="1" as="geometry">
            <mxPoint x="144" y="-55" as="offset" />
          </mxGeometry>
        </mxCell>
        <mxCell id="hMmeVdPa3TFVPshaFbfD-35" value="&lt;div style=&quot;&quot;&gt;&lt;ul&gt;&lt;li&gt;&lt;font style=&quot;font-size: 12px;&quot;&gt;podpisanie wiadomości kluczem prywatnym klienta&lt;/font&gt;&lt;/li&gt;&lt;/ul&gt;&lt;/div&gt;" style="rounded=1;whiteSpace=wrap;html=1;fillColor=#d5e8d4;strokeColor=#82b366;spacingTop=0;verticalAlign=middle;spacingBottom=0;opacity=70;align=left;labelPosition=center;verticalLabelPosition=middle;spacingLeft=-25;" parent="1" vertex="1">
          <mxGeometry x="-120" y="260" width="170" height="40" as="geometry" />
        </mxCell>
        <mxCell id="Lk_NrazdhThPDiIbwe2l-1" value="&lt;div style=&quot;&quot;&gt;&lt;ul&gt;&lt;li&gt;&lt;span style=&quot;&quot;&gt;weryfikacja podpisu kluczem publicznym klienta&lt;/span&gt;&lt;/li&gt;&lt;ul&gt;&lt;li&gt;&lt;span style=&quot;&quot;&gt;jeśli niepoprawny &lt;b&gt;response&lt;/b&gt;: &quot;error&quot;&lt;/span&gt;&lt;/li&gt;&lt;/ul&gt;&lt;li&gt;&lt;span style=&quot;&quot;&gt;sprawdzenie czy login użytkownika znajduje się w bazie danych serwera&lt;/span&gt;&lt;/li&gt;&lt;ul&gt;&lt;li&gt;&lt;span style=&quot;&quot;&gt;jeśli istnieje i klucz publiczny się zgadza - uwierzytelnienie użytkownika (&lt;b&gt;response&lt;/b&gt;: &quot;success&quot;)&lt;/span&gt;&lt;/li&gt;&lt;li&gt;&lt;span style=&quot;&quot;&gt;jeśli istnieje, ale klucz publiczny się nie zgadza - &lt;b&gt;response&lt;/b&gt;: &quot;error&quot;&lt;/span&gt;&lt;/li&gt;&lt;li&gt;&lt;span style=&quot;&quot;&gt;jeśli nie istnieje - zapisanie loginu i klucza publicznego w bazie danych oraz uwierzytelnienie użytkownika (&lt;b&gt;response&lt;/b&gt;: &quot;success&quot;)&lt;/span&gt;&lt;/li&gt;&lt;/ul&gt;&lt;/ul&gt;&lt;/div&gt;" style="rounded=1;whiteSpace=wrap;html=1;fillColor=#d5e8d4;strokeColor=#82b366;spacingTop=0;verticalAlign=middle;spacingBottom=0;opacity=70;align=left;labelPosition=center;verticalLabelPosition=middle;spacingLeft=-17;" parent="1" vertex="1">
          <mxGeometry x="520" y="490" width="310" height="210" as="geometry" />
        </mxCell>
        <mxCell id="Lk_NrazdhThPDiIbwe2l-2" value="Diagram procesu uwierzytelnienia" style="text;html=1;align=center;verticalAlign=middle;resizable=0;points=[];autosize=1;strokeColor=none;fillColor=none;fontSize=36;" parent="1" vertex="1">
          <mxGeometry x="70" y="-50" width="560" height="60" as="geometry" />
        </mxCell>
        <mxCell id="Lk_NrazdhThPDiIbwe2l-3" value="" style="group" parent="1" vertex="1" connectable="0">
          <mxGeometry x="730" y="390" width="60" height="90" as="geometry" />
        </mxCell>
        <mxCell id="hMmeVdPa3TFVPshaFbfD-30" value="" style="shape=cylinder3;whiteSpace=wrap;html=1;boundedLbl=1;backgroundOutline=1;size=15;" parent="Lk_NrazdhThPDiIbwe2l-3" vertex="1">
          <mxGeometry y="40" width="60" height="50" as="geometry" />
        </mxCell>
        <mxCell id="hMmeVdPa3TFVPshaFbfD-31" value="" style="shape=cylinder3;whiteSpace=wrap;html=1;boundedLbl=1;backgroundOutline=1;size=15;" parent="Lk_NrazdhThPDiIbwe2l-3" vertex="1">
          <mxGeometry y="20" width="60" height="50" as="geometry" />
        </mxCell>
        <mxCell id="hMmeVdPa3TFVPshaFbfD-32" value="" style="shape=cylinder3;whiteSpace=wrap;html=1;boundedLbl=1;backgroundOutline=1;size=15;" parent="Lk_NrazdhThPDiIbwe2l-3" vertex="1">
          <mxGeometry width="60" height="50" as="geometry" />
        </mxCell>
        <mxCell id="Lk_NrazdhThPDiIbwe2l-4" value="" style="endArrow=classic;startArrow=classic;html=1;rounded=0;exitX=0;exitY=0;exitDx=120;exitDy=50;exitPerimeter=0;entryX=0;entryY=0;entryDx=0;entryDy=30;entryPerimeter=0;" parent="1" source="hMmeVdPa3TFVPshaFbfD-16" target="hMmeVdPa3TFVPshaFbfD-31" edge="1">
          <mxGeometry width="50" height="50" relative="1" as="geometry">
            <mxPoint x="380" y="550" as="sourcePoint" />
            <mxPoint x="430" y="500" as="targetPoint" />
          </mxGeometry>
        </mxCell>
        <mxCell id="Lk_NrazdhThPDiIbwe2l-5" value="Diagram procesu nawiązania komunikacji&lt;br&gt;między klientami" style="text;html=1;align=center;verticalAlign=middle;resizable=0;points=[];autosize=1;strokeColor=none;fillColor=none;fontSize=36;" parent="1" vertex="1">
          <mxGeometry x="-1624" y="-145" width="690" height="100" as="geometry" />
        </mxCell>
        <mxCell id="Lk_NrazdhThPDiIbwe2l-8" value="&lt;div style=&quot;&quot;&gt;&lt;span style=&quot;background-color: initial;&quot;&gt;&lt;b style=&quot;&quot;&gt;&lt;font style=&quot;font-size: 12px;&quot;&gt;publicKeyFrom:&lt;/font&gt;&lt;/b&gt;&lt;/span&gt;&lt;/div&gt;&lt;div style=&quot;&quot;&gt;&lt;font style=&quot;font-size: 12px;&quot;&gt;&lt;span style=&quot;background-color: initial;&quot;&gt;&amp;lt;klucz publiczny klienta 1&amp;gt;&lt;br&gt;&lt;/span&gt;&lt;b&gt;publicKeyTo:&lt;/b&gt;&lt;/font&gt;&lt;/div&gt;&lt;div style=&quot;&quot;&gt;&lt;font style=&quot;font-size: 12px;&quot;&gt;&amp;lt;klucz publiczny klienta 2&amp;gt;&lt;br&gt;&lt;b&gt;sessionKeyPartEncrypted:&lt;/b&gt;&lt;/font&gt;&lt;/div&gt;&lt;div style=&quot;&quot;&gt;&lt;font style=&quot;font-size: 12px;&quot;&gt;&amp;lt;zaszyfrowana kluczem publicznym klienta 2 część klucza sesji wygenerowana przez klienta 1&amp;gt;&lt;/font&gt;&lt;/div&gt;" style="rounded=1;whiteSpace=wrap;html=1;fillColor=#dae8fc;strokeColor=#6c8ebf;spacingTop=0;verticalAlign=middle;spacingBottom=0;opacity=70;" parent="1" vertex="1">
          <mxGeometry x="-1841" y="-19" width="287" height="120" as="geometry" />
        </mxCell>
        <mxCell id="Lk_NrazdhThPDiIbwe2l-9" value="Klient 1" style="shape=umlActor;verticalLabelPosition=bottom;verticalAlign=top;html=1;outlineConnect=0;" parent="1" vertex="1">
          <mxGeometry x="-1884" y="70" width="30" height="60" as="geometry" />
        </mxCell>
        <mxCell id="Lk_NrazdhThPDiIbwe2l-10" value="Serwer" style="shape=cube;whiteSpace=wrap;html=1;boundedLbl=1;backgroundOutline=1;darkOpacity=0.05;darkOpacity2=0.1;" parent="1" vertex="1">
          <mxGeometry x="-1424" y="160" width="120" height="80" as="geometry" />
        </mxCell>
        <mxCell id="Lk_NrazdhThPDiIbwe2l-11" value="" style="endArrow=classic;html=1;rounded=0;entryX=-0.023;entryY=0.452;entryDx=0;entryDy=0;entryPerimeter=0;" parent="1" source="Lk_NrazdhThPDiIbwe2l-9" target="Lk_NrazdhThPDiIbwe2l-10" edge="1">
          <mxGeometry width="50" height="50" relative="1" as="geometry">
            <mxPoint x="-1654" y="260" as="sourcePoint" />
            <mxPoint x="-1604" y="210" as="targetPoint" />
          </mxGeometry>
        </mxCell>
        <mxCell id="Lk_NrazdhThPDiIbwe2l-12" value="chatInit" style="edgeLabel;html=1;align=center;verticalAlign=middle;resizable=0;points=[];rotation=13;" parent="Lk_NrazdhThPDiIbwe2l-11" vertex="1" connectable="0">
          <mxGeometry x="-0.2211" y="1" relative="1" as="geometry">
            <mxPoint x="78" y="2" as="offset" />
          </mxGeometry>
        </mxCell>
        <mxCell id="Lk_NrazdhThPDiIbwe2l-18" value="Serwer" style="shape=cube;whiteSpace=wrap;html=1;boundedLbl=1;backgroundOutline=1;darkOpacity=0.05;darkOpacity2=0.1;" parent="1" vertex="1">
          <mxGeometry x="-1424" y="403" width="120" height="80" as="geometry" />
        </mxCell>
        <mxCell id="Lk_NrazdhThPDiIbwe2l-19" value="Klient 1" style="shape=umlActor;verticalLabelPosition=bottom;verticalAlign=top;html=1;outlineConnect=0;" parent="1" vertex="1">
          <mxGeometry x="-1884" y="543" width="30" height="60" as="geometry" />
        </mxCell>
        <mxCell id="Lk_NrazdhThPDiIbwe2l-22" value="&lt;div style=&quot;&quot;&gt;&lt;ul&gt;&lt;li&gt;&lt;font style=&quot;font-size: 12px;&quot;&gt;odszyfrowanie odebranej części klucza kluczem prywatnym klienta 1&lt;/font&gt;&lt;/li&gt;&lt;li style=&quot;border-color: var(--border-color);&quot;&gt;zapisanie klucza sesji (część 1 klucza + część 2 klucza) w stanie aplikacji (mapa &amp;lt;klucz publiczny klienta 2&amp;gt; : &amp;lt;klucz sesji&amp;gt;)&lt;/li&gt;&lt;/ul&gt;&lt;/div&gt;" style="rounded=1;whiteSpace=wrap;html=1;fillColor=#d5e8d4;strokeColor=#82b366;spacingTop=0;verticalAlign=middle;spacingBottom=0;opacity=70;align=left;labelPosition=center;verticalLabelPosition=middle;spacingLeft=-25;" parent="1" vertex="1">
          <mxGeometry x="-2148" y="540" width="252" height="89" as="geometry" />
        </mxCell>
        <mxCell id="Lk_NrazdhThPDiIbwe2l-29" value="Klient 2" style="shape=umlActor;verticalLabelPosition=bottom;verticalAlign=top;html=1;outlineConnect=0;" parent="1" vertex="1">
          <mxGeometry x="-852" y="277" width="30" height="60" as="geometry" />
        </mxCell>
        <mxCell id="Lk_NrazdhThPDiIbwe2l-30" value="" style="endArrow=classic;html=1;rounded=0;" parent="1" source="Lk_NrazdhThPDiIbwe2l-10" target="Lk_NrazdhThPDiIbwe2l-29" edge="1">
          <mxGeometry width="50" height="50" relative="1" as="geometry">
            <mxPoint x="-1234" y="170" as="sourcePoint" />
            <mxPoint x="-867" y="356.5" as="targetPoint" />
          </mxGeometry>
        </mxCell>
        <mxCell id="Lk_NrazdhThPDiIbwe2l-31" value="chatInit" style="edgeLabel;html=1;align=center;verticalAlign=middle;resizable=0;points=[];rotation=13;" parent="Lk_NrazdhThPDiIbwe2l-30" vertex="1" connectable="0">
          <mxGeometry x="-0.2211" y="1" relative="1" as="geometry">
            <mxPoint x="78" y="2" as="offset" />
          </mxGeometry>
        </mxCell>
        <mxCell id="Lk_NrazdhThPDiIbwe2l-32" value="&lt;div style=&quot;&quot;&gt;&lt;ul&gt;&lt;li&gt;&lt;span style=&quot;&quot;&gt;sprawdzenie czy obaj klienci są uwierzytelnieni&lt;/span&gt;&lt;/li&gt;&lt;li&gt;&lt;span style=&quot;&quot;&gt;zidentyfikowanie identyfikatora połączenia (sid) klienta 2 na podstawie jego klucza&lt;/span&gt;&lt;/li&gt;&lt;/ul&gt;&lt;/div&gt;" style="rounded=1;whiteSpace=wrap;html=1;fillColor=#d5e8d4;strokeColor=#82b366;spacingTop=0;verticalAlign=middle;spacingBottom=0;opacity=70;align=left;labelPosition=center;verticalLabelPosition=middle;spacingLeft=-25;" parent="1" vertex="1">
          <mxGeometry x="-1468" y="60" width="200" height="90" as="geometry" />
        </mxCell>
        <mxCell id="7EqNihi-GNMJjYa_B4wX-1" value="&lt;div style=&quot;&quot;&gt;&lt;ul&gt;&lt;li&gt;&lt;font style=&quot;font-size: 12px;&quot;&gt;zaktualizowanie lokalnego stanu ze statusem uwierzytelnienia użytkownika (isRegistered: &amp;lt;boolean&amp;gt;)&lt;/font&gt;&lt;/li&gt;&lt;/ul&gt;&lt;/div&gt;" style="rounded=1;whiteSpace=wrap;html=1;fillColor=#d5e8d4;strokeColor=#82b366;spacingTop=0;verticalAlign=middle;spacingBottom=0;opacity=70;align=left;labelPosition=center;verticalLabelPosition=middle;spacingLeft=-25;" parent="1" vertex="1">
          <mxGeometry x="-148" y="557" width="195" height="74" as="geometry" />
        </mxCell>
        <mxCell id="7EqNihi-GNMJjYa_B4wX-2" value="&lt;div style=&quot;&quot;&gt;&lt;ul&gt;&lt;li&gt;odszyfrowanie części klucza wygenerowanej przez klienta 1 kluczem prywatnym klienta 2&lt;/li&gt;&lt;li&gt;wygenerowanie drugiej części klucza sesji&lt;/li&gt;&lt;li&gt;zaszyfrowanie drugiej części klucza sesji kluczem publicznym klienta 2&lt;/li&gt;&lt;li&gt;zapisanie klucza sesji (część 1 klucza + część 2 klucza) w stanie aplikacji (mapa &amp;lt;klucz publiczny klienta 1&amp;gt; : &amp;lt;klucz sesji&amp;gt;)&lt;/li&gt;&lt;li&gt;wysłanie zaszyfrowanej drugiej części klucza sesji (punkt 3) do serwera&lt;/li&gt;&lt;/ul&gt;&lt;/div&gt;" style="rounded=1;whiteSpace=wrap;html=1;fillColor=#d5e8d4;strokeColor=#82b366;spacingTop=0;verticalAlign=middle;spacingBottom=0;opacity=70;align=left;labelPosition=center;verticalLabelPosition=middle;spacingLeft=-25;" parent="1" vertex="1">
          <mxGeometry x="-806" y="230" width="272" height="166" as="geometry" />
        </mxCell>
        <mxCell id="7EqNihi-GNMJjYa_B4wX-3" value="&lt;div style=&quot;&quot;&gt;&lt;span style=&quot;background-color: initial;&quot;&gt;&lt;b style=&quot;&quot;&gt;&lt;font style=&quot;font-size: 12px;&quot;&gt;publicKeyFrom:&lt;/font&gt;&lt;/b&gt;&lt;/span&gt;&lt;/div&gt;&lt;div style=&quot;&quot;&gt;&lt;font style=&quot;font-size: 12px;&quot;&gt;&lt;span style=&quot;background-color: initial;&quot;&gt;&amp;lt;klucz publiczny klienta 1&amp;gt;&lt;br&gt;&lt;/span&gt;&lt;b&gt;publicKeyTo:&lt;/b&gt;&lt;/font&gt;&lt;/div&gt;&lt;div style=&quot;&quot;&gt;&lt;font style=&quot;font-size: 12px;&quot;&gt;&amp;lt;klucz publiczny klienta 2&amp;gt;&lt;br&gt;&lt;b&gt;sessionKeyPartEncrypted:&lt;/b&gt;&lt;/font&gt;&lt;/div&gt;&lt;div style=&quot;&quot;&gt;&lt;font style=&quot;font-size: 12px;&quot;&gt;&amp;lt;zaszyfrowana kluczem publicznym klienta 2 część klucza sesji wygenerowana przez klienta 1&amp;gt;&lt;/font&gt;&lt;/div&gt;" style="rounded=1;whiteSpace=wrap;html=1;fillColor=#dae8fc;strokeColor=#6c8ebf;spacingTop=0;verticalAlign=middle;spacingBottom=0;opacity=70;" parent="1" vertex="1">
          <mxGeometry x="-1261" y="96" width="287" height="120" as="geometry" />
        </mxCell>
        <mxCell id="7EqNihi-GNMJjYa_B4wX-6" value="" style="endArrow=classic;html=1;rounded=0;entryX=1.008;entryY=0.414;entryDx=0;entryDy=0;entryPerimeter=0;" parent="1" source="Lk_NrazdhThPDiIbwe2l-29" target="Lk_NrazdhThPDiIbwe2l-18" edge="1">
          <mxGeometry width="50" height="50" relative="1" as="geometry">
            <mxPoint x="-1367" y="474" as="sourcePoint" />
            <mxPoint x="-1317" y="424" as="targetPoint" />
          </mxGeometry>
        </mxCell>
        <mxCell id="7EqNihi-GNMJjYa_B4wX-8" value="chatInit (callback)" style="edgeLabel;html=1;align=center;verticalAlign=middle;resizable=0;points=[];labelBackgroundColor=none;rotation=344;" parent="7EqNihi-GNMJjYa_B4wX-6" vertex="1" connectable="0">
          <mxGeometry x="0.3" y="3" relative="1" as="geometry">
            <mxPoint x="7" y="-16" as="offset" />
          </mxGeometry>
        </mxCell>
        <mxCell id="7EqNihi-GNMJjYa_B4wX-7" value="&lt;div style=&quot;&quot;&gt;&lt;b style=&quot;background-color: initial;&quot;&gt;sessionKeySecondPartEncrypted:&lt;/b&gt;&lt;br&gt;&lt;/div&gt;&lt;div style=&quot;&quot;&gt;&lt;font style=&quot;font-size: 12px;&quot;&gt;&amp;lt;zaszyfrowana kluczem publicznym klienta 1 część klucza sesji wygenerowana przez klienta 2&amp;gt;&lt;/font&gt;&lt;/div&gt;" style="rounded=1;whiteSpace=wrap;html=1;fillColor=#dae8fc;strokeColor=#6c8ebf;spacingTop=0;verticalAlign=middle;spacingBottom=0;opacity=70;" parent="1" vertex="1">
          <mxGeometry x="-1098" y="382" width="287" height="69" as="geometry" />
        </mxCell>
        <mxCell id="7EqNihi-GNMJjYa_B4wX-9" value="" style="endArrow=classic;html=1;rounded=0;exitX=-0.017;exitY=0.618;exitDx=0;exitDy=0;exitPerimeter=0;" parent="1" source="Lk_NrazdhThPDiIbwe2l-18" target="Lk_NrazdhThPDiIbwe2l-19" edge="1">
          <mxGeometry width="50" height="50" relative="1" as="geometry">
            <mxPoint x="-1479" y="452" as="sourcePoint" />
            <mxPoint x="-1657" y="593" as="targetPoint" />
          </mxGeometry>
        </mxCell>
        <mxCell id="7EqNihi-GNMJjYa_B4wX-10" value="chatInit (callback)" style="edgeLabel;html=1;align=center;verticalAlign=middle;resizable=0;points=[];labelBackgroundColor=none;rotation=344;" parent="7EqNihi-GNMJjYa_B4wX-9" vertex="1" connectable="0">
          <mxGeometry x="0.3" y="3" relative="1" as="geometry">
            <mxPoint x="38" y="-25" as="offset" />
          </mxGeometry>
        </mxCell>
        <mxCell id="7EqNihi-GNMJjYa_B4wX-12" value="&lt;div style=&quot;&quot;&gt;&lt;b style=&quot;background-color: initial;&quot;&gt;sessionKeySecondPartEncrypted:&lt;/b&gt;&lt;br&gt;&lt;/div&gt;&lt;div style=&quot;&quot;&gt;&lt;font style=&quot;font-size: 12px;&quot;&gt;&amp;lt;zaszyfrowana kluczem publicznym klienta 1 część klucza sesji wygenerowana przez klienta 2&amp;gt;&lt;/font&gt;&lt;/div&gt;" style="rounded=1;whiteSpace=wrap;html=1;fillColor=#dae8fc;strokeColor=#6c8ebf;spacingTop=0;verticalAlign=middle;spacingBottom=0;opacity=70;" parent="1" vertex="1">
          <mxGeometry x="-1726" y="374" width="287" height="69" as="geometry" />
        </mxCell>
        <mxCell id="7EqNihi-GNMJjYa_B4wX-13" value="&lt;div style=&quot;&quot;&gt;&lt;ul&gt;&lt;li&gt;sprawdzenie czy istnieje klucz sesji przypisany do klienta 2&lt;/li&gt;&lt;ul&gt;&lt;li&gt;jeśli istnieje pominięcie wykonania dalszej części procesu&lt;/li&gt;&lt;li&gt;jeśli nie istnieje: wygenerowanie pierwszej części klucza sesji i zaszyfrowanie jej kluczem publicznym klienta 2&lt;/li&gt;&lt;/ul&gt;&lt;/ul&gt;&lt;/div&gt;" style="rounded=1;whiteSpace=wrap;html=1;fillColor=#d5e8d4;strokeColor=#82b366;spacingTop=0;verticalAlign=middle;spacingBottom=0;opacity=70;align=left;labelPosition=center;verticalLabelPosition=middle;spacingLeft=-25;" parent="1" vertex="1">
          <mxGeometry x="-2156" y="48" width="252" height="123" as="geometry" />
        </mxCell>
        <mxCell id="7EqNihi-GNMJjYa_B4wX-14" value="`" style="text;html=1;align=center;verticalAlign=middle;resizable=0;points=[];autosize=1;strokeColor=none;fillColor=none;fontSize=36;" parent="1" vertex="1">
          <mxGeometry x="-1383" y="1057" width="30" height="55" as="geometry" />
        </mxCell>
        <mxCell id="7EqNihi-GNMJjYa_B4wX-15" value="&lt;div style=&quot;&quot;&gt;&lt;span style=&quot;background-color: initial;&quot;&gt;&lt;font style=&quot;font-size: 12px;&quot;&gt;transportedMessage:&lt;br&gt;&lt;/font&gt;&lt;/span&gt;&lt;/div&gt;&lt;div style=&quot;&quot;&gt;&lt;span style=&quot;background-color: initial;&quot;&gt;&lt;font style=&quot;font-size: 12px;&quot;&gt;&lt;br&gt;&lt;/font&gt;&lt;/span&gt;&lt;/div&gt;&lt;div style=&quot;&quot;&gt;&lt;font style=&quot;font-size: 12px;&quot;&gt;&lt;b&gt;publicKeyTo:&lt;/b&gt;&lt;/font&gt;&lt;/div&gt;&lt;div style=&quot;&quot;&gt;&lt;font style=&quot;font-size: 12px;&quot;&gt;&amp;lt;klucz publiczny klienta 2&amp;gt;&lt;/font&gt;&lt;/div&gt;&lt;div style=&quot;&quot;&gt;&lt;font style=&quot;font-size: 12px;&quot;&gt;&lt;div style=&quot;border-color: var(--border-color);&quot;&gt;&lt;font style=&quot;border-color: var(--border-color);&quot;&gt;&lt;b style=&quot;border-color: var(--border-color);&quot;&gt;publicKeyFrom:&lt;/b&gt;&lt;/font&gt;&lt;/div&gt;&lt;div style=&quot;border-color: var(--border-color);&quot;&gt;&lt;font style=&quot;border-color: var(--border-color);&quot;&gt;&lt;span style=&quot;border-color: var(--border-color); background-color: initial;&quot;&gt;&amp;lt;klucz publiczny klienta 1&amp;gt;&lt;/span&gt;&lt;/font&gt;&lt;/div&gt;&lt;b&gt;text:&lt;/b&gt;&lt;/font&gt;&lt;/div&gt;&lt;div style=&quot;&quot;&gt;&lt;font style=&quot;font-size: 12px;&quot;&gt;&amp;lt;zaszyfrowana algorytmem SDEx treść wiadomości&amp;gt;&lt;/font&gt;&lt;/div&gt;&lt;div style=&quot;&quot;&gt;&lt;font style=&quot;font-size: 12px;&quot;&gt;&lt;b&gt;createdAt:&lt;/b&gt;&lt;/font&gt;&lt;/div&gt;&lt;div style=&quot;&quot;&gt;&amp;lt;data stworzenia wiadomości przez klienta 1&amp;gt;&lt;/div&gt;" style="rounded=1;whiteSpace=wrap;html=1;fillColor=#dae8fc;strokeColor=#6c8ebf;spacingTop=0;verticalAlign=middle;spacingBottom=0;opacity=70;" parent="1" vertex="1">
          <mxGeometry x="-1860" y="1145" width="299" height="159" as="geometry" />
        </mxCell>
        <mxCell id="7EqNihi-GNMJjYa_B4wX-16" value="Klient 1" style="shape=umlActor;verticalLabelPosition=bottom;verticalAlign=top;html=1;outlineConnect=0;" parent="1" vertex="1">
          <mxGeometry x="-1903" y="1273" width="30" height="60" as="geometry" />
        </mxCell>
        <mxCell id="7EqNihi-GNMJjYa_B4wX-17" value="Serwer" style="shape=cube;whiteSpace=wrap;html=1;boundedLbl=1;backgroundOutline=1;darkOpacity=0.05;darkOpacity2=0.1;" parent="1" vertex="1">
          <mxGeometry x="-1443" y="1363" width="120" height="80" as="geometry" />
        </mxCell>
        <mxCell id="7EqNihi-GNMJjYa_B4wX-18" value="" style="endArrow=classic;html=1;rounded=0;entryX=-0.023;entryY=0.452;entryDx=0;entryDy=0;entryPerimeter=0;" parent="1" source="7EqNihi-GNMJjYa_B4wX-16" target="7EqNihi-GNMJjYa_B4wX-17" edge="1">
          <mxGeometry width="50" height="50" relative="1" as="geometry">
            <mxPoint x="-1673" y="1463" as="sourcePoint" />
            <mxPoint x="-1623" y="1413" as="targetPoint" />
          </mxGeometry>
        </mxCell>
        <mxCell id="7EqNihi-GNMJjYa_B4wX-19" value="chat" style="edgeLabel;html=1;align=center;verticalAlign=middle;resizable=0;points=[];rotation=13;" parent="7EqNihi-GNMJjYa_B4wX-18" vertex="1" connectable="0">
          <mxGeometry x="-0.2211" y="1" relative="1" as="geometry">
            <mxPoint x="75" y="7" as="offset" />
          </mxGeometry>
        </mxCell>
        <mxCell id="7EqNihi-GNMJjYa_B4wX-23" value="Klient 2" style="shape=umlActor;verticalLabelPosition=bottom;verticalAlign=top;html=1;outlineConnect=0;" parent="1" vertex="1">
          <mxGeometry x="-871" y="1480" width="30" height="60" as="geometry" />
        </mxCell>
        <mxCell id="7EqNihi-GNMJjYa_B4wX-24" value="" style="endArrow=classic;html=1;rounded=0;" parent="1" edge="1">
          <mxGeometry width="50" height="50" relative="1" as="geometry">
            <mxPoint x="-1322" y="1415.1821631878556" as="sourcePoint" />
            <mxPoint x="-870" y="1506.954459203036" as="targetPoint" />
          </mxGeometry>
        </mxCell>
        <mxCell id="7EqNihi-GNMJjYa_B4wX-25" value="chat" style="edgeLabel;html=1;align=center;verticalAlign=middle;resizable=0;points=[];rotation=13;" parent="7EqNihi-GNMJjYa_B4wX-24" vertex="1" connectable="0">
          <mxGeometry x="-0.2211" y="1" relative="1" as="geometry">
            <mxPoint x="73" y="6" as="offset" />
          </mxGeometry>
        </mxCell>
        <mxCell id="7EqNihi-GNMJjYa_B4wX-26" value="&lt;div style=&quot;&quot;&gt;&lt;ul&gt;&lt;li&gt;&lt;span style=&quot;background-color: initial;&quot;&gt;zidentyfikowanie identyfikatora połączenia (sid) klienta 2 na podstawie jego klucza&lt;/span&gt;&lt;br&gt;&lt;/li&gt;&lt;li style=&quot;border-color: var(--border-color);&quot;&gt;sprawdzenie czy obaj klienci są połączeni z serwerem (jeśli nie - &lt;b&gt;response&lt;/b&gt;: &quot;error&quot;&lt;/li&gt;&lt;li style=&quot;border-color: var(--border-color);&quot;&gt;sprawdzenie czy klient 1 jest uwierzytelniony na serwerze (jeśli nie - &lt;b&gt;response&lt;/b&gt;: &quot;error&quot;)&lt;/li&gt;&lt;li style=&quot;border-color: var(--border-color);&quot;&gt;przekazanie wiadomości do klienta 2 (&lt;b&gt;response&lt;/b&gt;: &quot;success&quot;)&lt;/li&gt;&lt;li style=&quot;border-color: var(--border-color);&quot;&gt;odesłanie statusu do klienta 1&lt;/li&gt;&lt;/ul&gt;&lt;/div&gt;" style="rounded=1;whiteSpace=wrap;html=1;fillColor=#d5e8d4;strokeColor=#82b366;spacingTop=0;verticalAlign=middle;spacingBottom=0;opacity=70;align=left;labelPosition=center;verticalLabelPosition=middle;spacingLeft=-25;" parent="1" vertex="1">
          <mxGeometry x="-1512" y="1196" width="265" height="157" as="geometry" />
        </mxCell>
        <mxCell id="7EqNihi-GNMJjYa_B4wX-27" value="&lt;div style=&quot;&quot;&gt;&lt;ul&gt;&lt;li&gt;sprawdzenie, czy klucz sesji przypisany do klucza publicznego klienta 1 istnieje w stanie aplikacji klienta 2&lt;/li&gt;&lt;ul&gt;&lt;li&gt;jeśli nie istnieje - rzucenie błędu w aplikacji klienta 2&lt;/li&gt;&lt;li&gt;jeśli istnieje - odszyfrowanie wiadomości i zapisanie jej w bazie danych klienta&lt;/li&gt;&lt;/ul&gt;&lt;/ul&gt;&lt;/div&gt;" style="rounded=1;whiteSpace=wrap;html=1;fillColor=#d5e8d4;strokeColor=#82b366;spacingTop=0;verticalAlign=middle;spacingBottom=0;opacity=70;align=left;labelPosition=center;verticalLabelPosition=middle;spacingLeft=-25;" parent="1" vertex="1">
          <mxGeometry x="-825" y="1433" width="318" height="106" as="geometry" />
        </mxCell>
        <mxCell id="7EqNihi-GNMJjYa_B4wX-29" value="" style="endArrow=classic;html=1;rounded=0;" parent="1" target="7EqNihi-GNMJjYa_B4wX-38" edge="1">
          <mxGeometry width="50" height="50" relative="1" as="geometry">
            <mxPoint x="-1443" y="1642" as="sourcePoint" />
            <mxPoint x="-1807" y="1528" as="targetPoint" />
          </mxGeometry>
        </mxCell>
        <mxCell id="7EqNihi-GNMJjYa_B4wX-30" value="chat (callback)" style="edgeLabel;html=1;align=center;verticalAlign=middle;resizable=0;points=[];labelBackgroundColor=none;rotation=344;" parent="7EqNihi-GNMJjYa_B4wX-29" vertex="1" connectable="0">
          <mxGeometry x="0.3" y="3" relative="1" as="geometry">
            <mxPoint x="7" y="-16" as="offset" />
          </mxGeometry>
        </mxCell>
        <mxCell id="7EqNihi-GNMJjYa_B4wX-35" value="&lt;div style=&quot;&quot;&gt;&lt;ul&gt;&lt;li&gt;&lt;span style=&quot;background-color: initial;&quot;&gt;zaszyfrowanie tekstu wiadomości algorytmem SDEx&lt;/span&gt;&lt;/li&gt;&lt;li&gt;&lt;span style=&quot;background-color: initial;&quot;&gt;przygotowanie wiadomości do transportu (transportedMessage)&lt;/span&gt;&lt;/li&gt;&lt;li&gt;&lt;span style=&quot;background-color: initial;&quot;&gt;wysłanie wiadomości&lt;/span&gt;&lt;/li&gt;&lt;/ul&gt;&lt;/div&gt;" style="rounded=1;whiteSpace=wrap;html=1;fillColor=#d5e8d4;strokeColor=#82b366;spacingTop=0;verticalAlign=middle;spacingBottom=0;opacity=70;align=left;labelPosition=center;verticalLabelPosition=middle;spacingLeft=-25;" parent="1" vertex="1">
          <mxGeometry x="-2203" y="1265.5" width="279" height="76.5" as="geometry" />
        </mxCell>
        <mxCell id="7EqNihi-GNMJjYa_B4wX-37" value="&lt;div style=&quot;&quot;&gt;&lt;span style=&quot;background-color: initial;&quot;&gt;&lt;font style=&quot;font-size: 12px;&quot;&gt;transportedMessage:&lt;br&gt;&lt;/font&gt;&lt;/span&gt;&lt;/div&gt;&lt;div style=&quot;&quot;&gt;&lt;span style=&quot;background-color: initial;&quot;&gt;&lt;font style=&quot;font-size: 12px;&quot;&gt;&lt;br&gt;&lt;/font&gt;&lt;/span&gt;&lt;/div&gt;&lt;div style=&quot;&quot;&gt;&lt;font style=&quot;font-size: 12px;&quot;&gt;&lt;b&gt;publicKeyTo:&lt;/b&gt;&lt;/font&gt;&lt;/div&gt;&lt;div style=&quot;&quot;&gt;&lt;font style=&quot;font-size: 12px;&quot;&gt;&amp;lt;klucz publiczny klienta 2&amp;gt;&lt;/font&gt;&lt;/div&gt;&lt;div style=&quot;&quot;&gt;&lt;font style=&quot;font-size: 12px;&quot;&gt;&lt;div style=&quot;border-color: var(--border-color);&quot;&gt;&lt;font style=&quot;border-color: var(--border-color);&quot;&gt;&lt;b style=&quot;border-color: var(--border-color);&quot;&gt;publicKeyFrom:&lt;/b&gt;&lt;/font&gt;&lt;/div&gt;&lt;div style=&quot;border-color: var(--border-color);&quot;&gt;&lt;font style=&quot;border-color: var(--border-color);&quot;&gt;&lt;span style=&quot;border-color: var(--border-color); background-color: initial;&quot;&gt;&amp;lt;klucz publiczny klienta 1&amp;gt;&lt;/span&gt;&lt;/font&gt;&lt;/div&gt;&lt;b&gt;text:&lt;/b&gt;&lt;/font&gt;&lt;/div&gt;&lt;div style=&quot;&quot;&gt;&lt;font style=&quot;font-size: 12px;&quot;&gt;&amp;lt;zaszyfrowana algorytmem SDEx treść wiadomości&amp;gt;&lt;/font&gt;&lt;/div&gt;&lt;div style=&quot;&quot;&gt;&lt;font style=&quot;font-size: 12px;&quot;&gt;&lt;b&gt;createdAt:&lt;/b&gt;&lt;/font&gt;&lt;/div&gt;&lt;div style=&quot;&quot;&gt;&amp;lt;data stworzenia wiadomości przez klienta 1&amp;gt;&lt;/div&gt;" style="rounded=1;whiteSpace=wrap;html=1;fillColor=#dae8fc;strokeColor=#6c8ebf;spacingTop=0;verticalAlign=middle;spacingBottom=0;opacity=70;" parent="1" vertex="1">
          <mxGeometry x="-1230" y="1269" width="299" height="159" as="geometry" />
        </mxCell>
        <mxCell id="7EqNihi-GNMJjYa_B4wX-38" value="`" style="shape=umlActor;verticalLabelPosition=bottom;verticalAlign=top;html=1;outlineConnect=0;" parent="1" vertex="1">
          <mxGeometry x="-1896" y="1754" width="30" height="60" as="geometry" />
        </mxCell>
        <mxCell id="7EqNihi-GNMJjYa_B4wX-39" value="&lt;div style=&quot;&quot;&gt;&lt;font style=&quot;font-size: 12px;&quot;&gt;&lt;b style=&quot;&quot;&gt;response:&lt;/b&gt;&lt;br&gt;&lt;/font&gt;&lt;/div&gt;&lt;div style=&quot;&quot;&gt;&lt;font style=&quot;font-size: 12px;&quot;&gt;&quot;success&quot; / &quot;error&quot;&lt;/font&gt;&lt;/div&gt;" style="rounded=1;whiteSpace=wrap;html=1;fillColor=#dae8fc;strokeColor=#6c8ebf;spacingTop=0;verticalAlign=middle;spacingBottom=0;opacity=70;" parent="1" vertex="1">
          <mxGeometry x="-1692" y="1388" width="170" height="40" as="geometry" />
        </mxCell>
        <mxCell id="7EqNihi-GNMJjYa_B4wX-40" value="&lt;div style=&quot;&quot;&gt;&lt;ul&gt;&lt;li&gt;`&lt;/li&gt;&lt;/ul&gt;&lt;/div&gt;" style="rounded=1;whiteSpace=wrap;html=1;fillColor=#d5e8d4;strokeColor=#82b366;spacingTop=0;verticalAlign=middle;spacingBottom=0;opacity=70;align=left;labelPosition=center;verticalLabelPosition=middle;spacingLeft=-25;" parent="1" vertex="1">
          <mxGeometry x="-2196" y="1749" width="288" height="76.5" as="geometry" />
        </mxCell>
        <mxCell id="7EqNihi-GNMJjYa_B4wX-41" value="Diagram procesu sprawdzania&lt;br&gt;statusu połączenia klienta" style="text;html=1;align=center;verticalAlign=middle;resizable=0;points=[];autosize=1;strokeColor=none;fillColor=none;fontSize=36;" parent="1" vertex="1">
          <mxGeometry x="218" y="1143" width="504" height="98" as="geometry" />
        </mxCell>
        <mxCell id="7EqNihi-GNMJjYa_B4wX-42" value="&lt;div style=&quot;&quot;&gt;&lt;b style=&quot;background-color: initial;&quot;&gt;publicKey:&lt;/b&gt;&lt;br&gt;&lt;/div&gt;&lt;div style=&quot;&quot;&gt;&lt;font style=&quot;font-size: 12px;&quot;&gt;&amp;lt;klucz publiczny klienta 2&amp;gt;&lt;/font&gt;&lt;/div&gt;" style="rounded=1;whiteSpace=wrap;html=1;fillColor=#dae8fc;strokeColor=#6c8ebf;spacingTop=0;verticalAlign=middle;spacingBottom=0;opacity=70;" parent="1" vertex="1">
          <mxGeometry x="218" y="1348.38" width="166" height="52.75" as="geometry" />
        </mxCell>
        <mxCell id="7EqNihi-GNMJjYa_B4wX-43" value="Klient 1" style="shape=umlActor;verticalLabelPosition=bottom;verticalAlign=top;html=1;outlineConnect=0;" parent="1" vertex="1">
          <mxGeometry x="168" y="1373.25" width="30" height="60" as="geometry" />
        </mxCell>
        <mxCell id="7EqNihi-GNMJjYa_B4wX-44" value="Serwer" style="shape=cube;whiteSpace=wrap;html=1;boundedLbl=1;backgroundOutline=1;darkOpacity=0.05;darkOpacity2=0.1;" parent="1" vertex="1">
          <mxGeometry x="628" y="1463.25" width="120" height="80" as="geometry" />
        </mxCell>
        <mxCell id="7EqNihi-GNMJjYa_B4wX-45" value="" style="endArrow=classic;html=1;rounded=0;entryX=-0.023;entryY=0.452;entryDx=0;entryDy=0;entryPerimeter=0;" parent="1" source="7EqNihi-GNMJjYa_B4wX-43" target="7EqNihi-GNMJjYa_B4wX-44" edge="1">
          <mxGeometry width="50" height="50" relative="1" as="geometry">
            <mxPoint x="398" y="1563.25" as="sourcePoint" />
            <mxPoint x="448" y="1513.25" as="targetPoint" />
          </mxGeometry>
        </mxCell>
        <mxCell id="7EqNihi-GNMJjYa_B4wX-46" value="checkOnline" style="edgeLabel;html=1;align=center;verticalAlign=middle;resizable=0;points=[];rotation=13;labelBackgroundColor=none;" parent="7EqNihi-GNMJjYa_B4wX-45" vertex="1" connectable="0">
          <mxGeometry x="-0.2211" y="1" relative="1" as="geometry">
            <mxPoint x="75" y="7" as="offset" />
          </mxGeometry>
        </mxCell>
        <mxCell id="7EqNihi-GNMJjYa_B4wX-50" value="&lt;div style=&quot;&quot;&gt;&lt;ul&gt;&lt;li&gt;&lt;span style=&quot;background-color: initial;&quot;&gt;sprawdzenie czy klient 1 jest uwierzytelniony&lt;/span&gt;&lt;/li&gt;&lt;ul&gt;&lt;li&gt;&lt;span style=&quot;background-color: initial;&quot;&gt;jeśli nie &lt;b&gt;response&lt;/b&gt;: false&lt;/span&gt;&lt;/li&gt;&lt;/ul&gt;&lt;li&gt;zidentyfikowanie identyfikatora połączenia (sid) klienta 2 na podstawie odebranego &lt;b&gt;publicKey&lt;/b&gt;&lt;/li&gt;&lt;ul&gt;&lt;li&gt;jeśli istnieje - klient 2 jest połączony (&lt;b&gt;response&lt;/b&gt;: true)&lt;/li&gt;&lt;li&gt;jeśli nie - &lt;b&gt;response&lt;/b&gt;: false&lt;/li&gt;&lt;/ul&gt;&lt;/ul&gt;&lt;/div&gt;" style="rounded=1;whiteSpace=wrap;html=1;fillColor=#d5e8d4;strokeColor=#82b366;spacingTop=0;verticalAlign=middle;spacingBottom=0;opacity=70;align=left;labelPosition=center;verticalLabelPosition=middle;spacingLeft=-25;" parent="1" vertex="1">
          <mxGeometry x="559" y="1296.25" width="265" height="157" as="geometry" />
        </mxCell>
        <mxCell id="7EqNihi-GNMJjYa_B4wX-52" value="" style="endArrow=classic;html=1;rounded=0;exitX=0.005;exitY=0.594;exitDx=0;exitDy=0;exitPerimeter=0;" parent="1" source="7EqNihi-GNMJjYa_B4wX-44" target="7EqNihi-GNMJjYa_B4wX-56" edge="1">
          <mxGeometry width="50" height="50" relative="1" as="geometry">
            <mxPoint x="685" y="1777.25" as="sourcePoint" />
            <mxPoint x="264" y="1628.25" as="targetPoint" />
          </mxGeometry>
        </mxCell>
        <mxCell id="7EqNihi-GNMJjYa_B4wX-53" value="chechOnline (callback)" style="edgeLabel;html=1;align=center;verticalAlign=middle;resizable=0;points=[];labelBackgroundColor=none;rotation=344;" parent="7EqNihi-GNMJjYa_B4wX-52" vertex="1" connectable="0">
          <mxGeometry x="0.3" y="3" relative="1" as="geometry">
            <mxPoint x="7" y="-16" as="offset" />
          </mxGeometry>
        </mxCell>
        <mxCell id="7EqNihi-GNMJjYa_B4wX-56" value="Klient 1" style="shape=umlActor;verticalLabelPosition=bottom;verticalAlign=top;html=1;outlineConnect=0;" parent="1" vertex="1">
          <mxGeometry x="168" y="1604.25" width="30" height="60" as="geometry" />
        </mxCell>
        <mxCell id="7EqNihi-GNMJjYa_B4wX-57" value="&lt;div style=&quot;&quot;&gt;&lt;font style=&quot;font-size: 12px;&quot;&gt;&lt;b style=&quot;&quot;&gt;response:&lt;/b&gt;&lt;br&gt;&lt;/font&gt;&lt;/div&gt;&lt;div style=&quot;&quot;&gt;&lt;font style=&quot;font-size: 12px;&quot;&gt;true / false&lt;/font&gt;&lt;/div&gt;" style="rounded=1;whiteSpace=wrap;html=1;fillColor=#dae8fc;strokeColor=#6c8ebf;spacingTop=0;verticalAlign=middle;spacingBottom=0;opacity=70;" parent="1" vertex="1">
          <mxGeometry x="372" y="1490" width="170" height="40" as="geometry" />
        </mxCell>
        <mxCell id="Ux3iRll6E9tTE1sqxh1b-3" value="Serwer" style="shape=cube;whiteSpace=wrap;html=1;boundedLbl=1;backgroundOutline=1;darkOpacity=0.05;darkOpacity2=0.1;" vertex="1" parent="1">
          <mxGeometry x="-1437" y="1609" width="120" height="80" as="geometry" />
        </mxCell>
        <mxCell id="Ux3iRll6E9tTE1sqxh1b-4" value="" style="endArrow=classic;html=1;rounded=0;" edge="1" parent="1">
          <mxGeometry width="50" height="50" relative="1" as="geometry">
            <mxPoint x="-875" y="1530" as="sourcePoint" />
            <mxPoint x="-1298" y="1667" as="targetPoint" />
          </mxGeometry>
        </mxCell>
        <mxCell id="Ux3iRll6E9tTE1sqxh1b-5" value="chat (callback)" style="edgeLabel;html=1;align=center;verticalAlign=middle;resizable=0;points=[];labelBackgroundColor=none;rotation=344;" vertex="1" connectable="0" parent="Ux3iRll6E9tTE1sqxh1b-4">
          <mxGeometry x="0.3" y="3" relative="1" as="geometry">
            <mxPoint x="7" y="-16" as="offset" />
          </mxGeometry>
        </mxCell>
        <mxCell id="Ux3iRll6E9tTE1sqxh1b-6" value="przerobić, żeby potwierdzenie było od klienta2" style="text;html=1;align=center;verticalAlign=middle;resizable=0;points=[];autosize=1;strokeColor=none;fillColor=none;" vertex="1" parent="1">
          <mxGeometry x="-1675" y="1528" width="263" height="26" as="geometry" />
        </mxCell>
      </root>
    </mxGraphModel>
  </diagram>
</mxfile>
